0
SECTION
2
HEADER
9
$INSUNITS
70
4
9
$ACADVER
1
AC1014
9
$HANDSEED
5
FFFF
0
ENDSEC
0
SECTION
2
TABLES
0
TABLE
2
VPORT
5
8
100
AcDbSymbolTable
0
ENDTAB
0
TABLE
2
LTYPE
5
5
100
AcDbSymbolTable
0
LTYPE
5
14
100
AcDbSymbolTableRecord
100
AcDbLinetypeTableRecord
2
BYBLOCK
70
0
0
LTYPE
5
15
100
AcDbSymbolTableRecord
100
AcDbLinetypeTableRecord
2
BYLAYER
70
0
0
LTYPE
5
16
100
AcDbSymbolTableRecord
100
AcDbLinetypeTableRecord
2
DASHED
70
0
3
Dashed __ __ __ __ __ __ __ __ __ __ __ __ __ _
72
65
73
2
40
0.75
49
0.5
74
0
49
-0.25
74
0
0
ENDTAB
0
TABLE
2
LAYER
5
2
100
AcDbSymbolTable
70
2
0
LAYER
5
50
100
AcDbSymbolTableRecord
100
AcDbLayerTableRecord
2
0
70
0
62
7
6
CONTINUOUS
0
ENDTAB
0
TABLE
2
STYLE
5
3
100
AcDbSymbolTable
70
1
0
STYLE
5
11
100
AcDbSymbolTableRecord
100
AcDbTextStyleTableRecord
2
STANDARD
70
0
0
ENDTAB
0
TABLE
2
VIEW
5
6
100
AcDbSymbolTable
70
0
0
ENDTAB
0
TABLE
2
UCS
5
7
100
AcDbSymbolTable
70
0
0
ENDTAB
0
TABLE
2
APPID
5
9
100
AcDbSymbolTable
70
2
0
APPID
5
12
100
AcDbSymbolTableRecord
100
AcDbRegAppTableRecord
2
ACAD
70
0
0
ENDTAB
0
TABLE
2
DIMSTYLE
5
A
100
AcDbSymbolTable
70
1
0
ENDTAB
0
TABLE
2
BLOCK_RECORD
5
1
100
AcDbSymbolTable
70
1
0
BLOCK_RECORD
5
1F
100
AcDbSymbolTableRecord
100
AcDbBlockTableRecord
2
*MODEL_SPACE
0
BLOCK_RECORD
5
1B
100
AcDbSymbolTableRecord
100
AcDbBlockTableRecord
2
*PAPER_SPACE
0
ENDTAB
0
ENDSEC
0
SECTION
2
BLOCKS
0
BLOCK
5
20
100
AcDbEntity
100
AcDbBlockBegin
2
*MODEL_SPACE
0
ENDBLK
5
21
100
AcDbEntity
100
AcDbBlockEnd
0
BLOCK
5
1C
100
AcDbEntity
100
AcDbBlockBegin
2
*PAPER_SPACE
0
ENDBLK
5
1D
100
AcDbEntity
100
AcDbBlockEnd
0
ENDSEC
0
SECTION
2
ENTITIES
0
CIRCLE
5
100
100
AcDbEntity
8
0
100
AcDbCircle
10
17.999999776482571
20
-2.2204460492503131e-15
30
0
40
6.0000000894069672
210
0
220
0
230
1
0
LINE
5
101
100
AcDbEntity
8
0
100
AcDbLine
10
7.9999996274709595
20
-14.000000208616258
30
0
11
2.9999999999999893
21
-9.0000000000000053
31
0
0
LINE
5
102
100
AcDbEntity
8
0
100
AcDbLine
10
48.999999999999993
20
-9.0000000000000071
30
0
11
32.999999999999986
21
-9.0000000000000053
31
0
0
LINE
5
103
100
AcDbEntity
8
0
100
AcDbLine
10
27.999999999999979
20
-14.000000000000011
30
0
11
7.9999996274709595
21
-14.000000208616258
31
0
0
LINE
5
104
100
AcDbEntity
8
0
100
AcDbLine
10
32.999999999999986
20
8.9999999999999929
30
0
11
48.999999999999993
21
8.9999999999999929
31
0
0
LINE
5
105
100
AcDbEntity
8
0
100
AcDbLine
10
32.999999999999986
20
-9.0000000000000053
30
0
11
27.999999999999979
21
-14.000000000000011
31
0
0
LINE
5
106
100
AcDbEntity
8
0
100
AcDbLine
10
2.9999999999999893
20
8.9999999999999964
30
0
11
7.9999996274709595
21
14.000000208616255
31
0
0
LINE
5
107
100
AcDbEntity
8
0
100
AcDbLine
10
48.999999999999993
20
8.9999999999999929
30
0
11
48.999999999999993
21
-9.0000000000000071
31
0
6
DASHED
0
LINE
5
108
100
AcDbEntity
8
0
100
AcDbLine
10
7.9999996274709595
20
14.000000208616255
30
0
11
27.999999999999986
21
13.999999999999996
31
0
0
LINE
5
109
100
AcDbEntity
8
0
100
AcDbLine
10
2.9999999999999893
20
-9.0000000000000053
30
0
11
2.9999999999999893
21
8.9999999999999964
31
0
0
LINE
5
110
100
AcDbEntity
8
0
100
AcDbLine
10
27.999999999999986
20
13.999999999999996
30
0
11
32.999999999999986
21
8.9999999999999929
31
0
0
LINE
5
111
100
AcDbEntity
8
0
100
AcDbLine
10
139.6583394853433
20
-9.0000000000000036
30
0
11
89.379912148485104
21
-9.0000000000000053
31
0
0
LINE
5
112
100
AcDbEntity
8
0
100
AcDbLine
10
89.379912148485104
20
8.9999999999999929
30
0
11
139.6583394853433
21
8.9999999999999964
31
0
0
LINE
5
113
100
AcDbEntity
8
0
100
AcDbLine
10
88.594912148485108
20
8.9999999999999964
30
0
11
68.625
21
8.9999999999999964
31
0
0
LINE
5
114
100
AcDbEntity
8
0
100
AcDbLine
10
88.594912148485108
20
-9.0000000000000036
30
0
11
88.594912148485108
21
8.9999999999999964
31
0
6
DASHED
0
LINE
5
115
100
AcDbEntity
8
0
100
AcDbLine
10
68.625
20
8.9999999999999964
30
0
11
68.625
21
-9.0000000000000036
31
0
6
DASHED
0
LINE
5
116
100
AcDbEntity
8
0
100
AcDbLine
10
68.625
20
-9.0000000000000036
30
0
11
88.594912148485108
21
-9.0000000000000036
31
0
0
LINE
5
117
100
AcDbEntity
8
0
100
AcDbLine
10
146.58216974468107
20
1.0000000000000011
30
0
11
151.58216974468107
21
1
31
0
0
LINE
5
118
100
AcDbEntity
8
0
100
AcDbLine
10
146.58216974468107
20
-0.99999999999999878
30
0
11
146.58216974468107
21
1.0000000000000011
31
0
0
LINE
5
119
100
AcDbEntity
8
0
100
AcDbLine
10
151.58216974468107
20
-7.0000000000000018
30
0
11
151.58216974468107
21
-0.99999999999999978
31
0
6
DASHED
0
LINE
5
120
100
AcDbEntity
8
0
100
AcDbLine
10
151.58216974468107
20
1
30
0
11
151.58216974468107
21
7.0000000000000018
31
0
6
DASHED
0
LINE
5
121
100
AcDbEntity
8
0
100
AcDbLine
10
151.58216974468107
20
7.0000000000000018
30
0
11
139.98833948534329
21
8.9999999999999929
31
0
0
LINE
5
122
100
AcDbEntity
8
0
100
AcDbLine
10
139.98833948534329
20
8.9999999999999929
30
0
11
139.98833948534329
21
-9.0000000000000053
31
0
6
DASHED
0
LINE
5
123
100
AcDbEntity
8
0
100
AcDbLine
10
151.58216974468107
20
-0.99999999999999978
30
0
11
146.58216974468107
21
-0.99999999999999878
31
0
0
LINE
5
124
100
AcDbEntity
8
0
100
AcDbLine
10
139.98833948534329
20
-9.0000000000000053
30
0
11
151.58216974468107
21
-7.0000000000000018
31
0
0
LINE
5
125
100
AcDbEntity
8
0
100
AcDbLine
10
152.0821697446811
20
7.0000000000000018
30
0
11
152.0821697446811
21
0.99999999999999978
31
0
6
DASHED
0
LINE
5
126
100
AcDbEntity
8
0
100
AcDbLine
10
158.94190882350586
20
7.0000000000000018
30
0
11
152.0821697446811
21
7.0000000000000018
31
0
0
LINE
5
127
100
AcDbEntity
8
0
100
AcDbLine
10
158.94190882350586
20
1
30
0
11
158.94190882350586
21
7.0000000000000018
31
0
0
LINE
5
128
100
AcDbEntity
8
0
100
AcDbLine
10
152.0821697446811
20
0.99999999999999978
30
0
11
158.94190882350586
21
1
31
0
0
LINE
5
129
100
AcDbEntity
8
0
100
AcDbLine
10
152.0821697446811
20
-1
30
0
11
152.0821697446811
21
-7.0000000000000018
31
0
6
DASHED
0
LINE
5
130
100
AcDbEntity
8
0
100
AcDbLine
10
152.0821697446811
20
-7.0000000000000018
30
0
11
158.94190882350586
21
-7.0000000000000018
31
0
0
LINE
5
131
100
AcDbEntity
8
0
100
AcDbLine
10
158.94190882350586
20
-1
30
0
11
152.0821697446811
21
-1
31
0
0
LINE
5
132
100
AcDbEntity
8
0
100
AcDbLine
10
158.94190882350586
20
-7.0000000000000018
30
0
11
158.94190882350586
21
-1
31
0
0
CIRCLE
5
133
100
AcDbEntity
8
0
100
AcDbCircle
10
5
20
-25
30
0
40
0.99999999999999645
210
0
220
0
230
1
0
CIRCLE
5
134
100
AcDbEntity
8
0
100
AcDbCircle
10
55
20
-25
30
0
40
1.0000000000000009
210
0
220
0
230
1
0
CIRCLE
5
135
100
AcDbEntity
8
0
100
AcDbCircle
10
5
20
-45
30
0
40
0.99999999999999645
210
0
220
0
230
1
0
CIRCLE
5
136
100
AcDbEntity
8
0
100
AcDbCircle
10
45
20
-45
30
0
40
0.99999999999999645
210
0
220
0
230
1
0
LWPOLYLINE
5
137
100
AcDbEntity
8
0
100
AcDbPolyline
90
9
70
1
43
0.0
10
53
20
-50
10
56.028991510855057
20
-48.285014148574916
10
68.999999463558197
20
-26.666667560736347
10
68.999999463558197
20
-22.999999523162842
10
66.999999955296516
20
-21.000000014901161
10
4.9999990314245224
20
-21.000000014901161
10
0
20
-24.999999031424522
10
-1.0430812835693359e-06
20
-45.00000037252903
10
4.9999990314245224
20
-50.000000447034836
0
CIRCLE
5
138
100
AcDbEntity
8
0
100
AcDbCircle
10
138
20
-25
30
0
40
0.99999999999999645
210
0
220
0
230
1
0
CIRCLE
5
139
100
AcDbEntity
8
0
100
AcDbCircle
10
88
20
-25
30
0
40
1.0000000000000009
210
0
220
0
230
1
0
CIRCLE
5
140
100
AcDbEntity
8
0
100
AcDbCircle
10
138
20
-45
30
0
40
0.99999999999999645
210
0
220
0
230
1
0
CIRCLE
5
141
100
AcDbEntity
8
0
100
AcDbCircle
10
98
20
-45
30
0
40
0.99999999999999645
210
0
220
0
230
1
0
LWPOLYLINE
5
142
100
AcDbEntity
8
0
100
AcDbPolyline
90
9
70
1
43
0.0
10
74.000000536441803
20
-26.666667560736347
10
86.97100848914495
20
-48.285014148574916
10
90
20
-50
10
138.00000096857548
20
-50.000000447034836
10
143.00000104308128
20
-45.00000037252903
10
143
20
-24.999999031424522
10
138.00000096857548
20
-21.000000014901161
10
76.000000044703484
20
-21.000000014901161
10
74.000000536441803
20
-22.999999523162842
0
LWPOLYLINE
5
143
100
AcDbEntity
8
0
100
AcDbPolyline
90
8
70
1
43
0.0
10
113.58000000000001
20
-31
10
122.58000000000001
20
-31.000000000000007
42
-0.41421356237309631
10
123.58000000000001
20
-32
10
123.58000000000001
20
-37
42
-0.41421356237309503
10
122.58000000000001
20
-38.000000000000007
10
113.58000000000001
20
-38.000000000000007
42
-0.41421356237309764
10
112.58000000000001
20
-37
10
112.58000000000001
20
-32
42
-0.41421356237309503
0
LWPOLYLINE
5
144
100
AcDbEntity
8
0
100
AcDbPolyline
90
6
70
1
43
0.0
10
114.00000071525575
20
-41.000000298023231
10
115.00000073015691
20
-41.000000298023231
10
117.00000075995924
20
-44.000000342726715
10
115.00000073015691
20
-47.000000387430191
10
114.00000071525575
20
-47.000000387430191
10
116.00000074505807
20
-44.142857487712575
0
LWPOLYLINE
5
145
100
AcDbEntity
8
0
100
AcDbPolyline
90
6
70
1
43
0.0
10
118.00000073015693
20
-41.000000298023231
10
120.00000075995925
20
-44.000000342726715
10
118.00000073015693
20
-47.000000387430191
10
117.00000071525577
20
-47.000000387430191
10
119.00000074505809
20
-44.142857487712575
10
117.00000071525577
20
-41.000000298023231
0
LWPOLYLINE
5
146
100
AcDbEntity
8
0
100
AcDbPolyline
90
6
70
1
43
0.0
10
122.00000074505807
20
-44.142857487712575
10
120.00000071525577
20
-41.000000298023231
10
121.00000073015691
20
-41.000000298023231
10
123.00000075995924
20
-44.000000342726715
10
121.00000073015691
20
-47.000000387430191
10
120.00000071525577
20
-47.000000387430191
0
CIRCLE
5
147
100
AcDbEntity
8
0
100
AcDbCircle
10
156.24484436567596
20
-43.890000000000001
30
5.5511151231257827e-16
40
1.0000000000000011
210
0
220
0
230
1
0
CIRCLE
5
148
100
AcDbEntity
8
0
100
AcDbCircle
10
171.48484436567597
20
-26.109999999999999
30
-5.5511151231257827e-16
40
1.0000000000000011
210
0
220
0
230
1
0
CIRCLE
5
149
100
AcDbEntity
8
0
100
AcDbCircle
10
171.48484436567597
20
-43.890000000000001
30
-5.5511151231257827e-16
40
1.0000000000000011
210
0
220
0
230
1
0
CIRCLE
5
150
100
AcDbEntity
8
0
100
AcDbCircle
10
156.24484436567596
20
-26.109999999999999
30
5.5511151231257827e-16
40
1.0000000000000011
210
0
220
0
230
1
0
CIRCLE
5
151
100
AcDbEntity
8
0
100
AcDbCircle
10
163.86484436567596
20
-27.379999999999999
30
5.5511151231257827e-16
40
3.0000000000000031
210
0
220
0
230
1
0
CIRCLE
5
152
100
AcDbEntity
8
0
100
AcDbCircle
10
156.24484436567596
20
-35.000000104308128
30
0
40
3.0000000000000009
210
0
220
0
230
1
0
CIRCLE
5
153
100
AcDbEntity
8
0
100
AcDbCircle
10
163.86484436567596
20
-42.620000000000005
30
5.5511151231257827e-16
40
2.9999999999999982
210
0
220
0
230
1
0
CIRCLE
5
154
100
AcDbEntity
8
0
100
AcDbCircle
10
171.48484436567597
20
-35.000000104308128
30
-5.5511151231257827e-16
40
3.0000000000000031
210
0
220
0
230
1
0
LWPOLYLINE
5
155
100
AcDbEntity
8
0
100
AcDbPolyline
90
8
70
1
43
0.0
10
176.44222410278923
20
-20.999999999999996
10
151.28746462856273
20
-20.999999999999996
10
149.28746462856273
20
-23
10
149.28746462856273
20
-47.000000000000014
10
151.28746462856273
20
-49
10
176.44222410278923
20
-49
10
178.44222410278923
20
-47.000000000000014
10
178.44222410278923
20
-23
0
CIRCLE
5
156
100
AcDbEntity
8
0
100
AcDbCircle
10
9.9999994784593493
20
-78.00000011920929
30
1.7763568394002501e-14
40
1.0000000000000011
210
0
220
0
230
1
0
CIRCLE
5
157
100
AcDbEntity
8
0
100
AcDbCircle
10
39.999999925494187
20
-61.99999988079071
30
1.7763568394002501e-14
40
1
210
0
220
0
230
1
0
CIRCLE
5
158
100
AcDbEntity
8
0
100
AcDbCircle
10
9.9999994784593493
20
-61.99999988079071
30
1.7763568394002501e-14
40
1.0000000000000011
210
0
220
0
230
1
0
CIRCLE
5
159
100
AcDbEntity
8
0
100
AcDbCircle
10
39.999999925494187
20
-78.00000011920929
30
1.7763568394002501e-14
40
1
210
0
220
0
230
1
0
CIRCLE
5
160
100
AcDbEntity
8
0
100
AcDbCircle
10
26.999999731779095
20
-74.000000059604645
30
0
40
3.9999999999999991
210
0
220
0
230
1
0
LWPOLYLINE
5
161
100
AcDbEntity
8
0
100
AcDbPolyline
90
10
70
1
43
0.0
10
37.999999999999964
20
-83
42
0.41421356237309542
10
44.999999999999964
20
-76
10
44.999999999999964
20
-64
42
0.4142135623730952
10
37.999999999999964
20
-57
10
10.998703783450798
20
-56.999999870856598
42
0.24422439200518561
10
0.36363648456970488
20
-62.525524300539914
42
0.15434715710509261
10
-3.5527136788005009e-14
20
-63.675443621783252
10
-6.2172489379008766e-14
20
-76.324556378216727
42
0.15434715710509103
10
0.36363648456967823
20
-77.474475699460058
42
0.24427720007973888
10
11.001295203270196
20
-83.000000129143402
0
CIRCLE
5
162
100
AcDbEntity
8
0
100
AcDbCircle
10
65.00000037252903
20
-70
30
0
40
1.0000000000000009
210
0
220
0
230
1
0
CIRCLE
5
163
100
AcDbEntity
8
0
100
AcDbCircle
10
105.00000096857548
20
-70
30
0
40
0.99999999999999645
210
0
220
0
230
1
0
LWPOLYLINE
5
164
100
AcDbEntity
8
0
100
AcDbPolyline
90
8
70
1
43
0.0
10
55.000000223517418
20
-57.999999791383743
10
55.000000223517418
20
-82
10
57.000000223517418
20
-83.999999999999986
10
105
20
-84
10
110
20
-79.000001177191479
10
110
20
-61.000001177191763
10
104.9999997913838
20
-55.999999791383743
10
57.000000223517432
20
-55.999999791383743
0
LINE
5
165
100
AcDbEntity
8
0
100
AcDbLine
10
48.999999999999993
20
8.9999999999999929
30
0
11
68.625
21
8.9999999999999929
31
0
0
LINE
5
166
100
AcDbEntity
8
0
100
AcDbLine
10
48.999999999999993
20
-9.0000000000000071
30
0
11
68.625
21
-9.0000000000000107
31
0
0
LINE
5
167
100
AcDbEntity
8
0
100
AcDbLine
10
68.625
20
8.9999999999999929
30
0
11
68.625
21
-9.0000000000000107
31
0
6
DASHED
0
LINE
5
168
100
AcDbEntity
8
0
100
AcDbLine
10
88.594912148485108
20
8.9999999999999964
30
0
11
89.379912148485104
21
8.9999999999999964
31
0
0
LINE
5
169
100
AcDbEntity
8
0
100
AcDbLine
10
89.379912148485104
20
8.9999999999999964
30
0
11
89.379912148485104
21
-9.0000000000000036
31
0
6
DASHED
0
LINE
5
170
100
AcDbEntity
8
0
100
AcDbLine
10
89.379912148485104
20
-9.0000000000000036
30
0
11
88.594912148485108
21
-9.0000000000000036
31
0
0
LINE
5
171
100
AcDbEntity
8
0
100
AcDbLine
10
88.594912148485108
20
-9.0000000000000036
30
0
11
88.594912148485108
21
8.9999999999999964
31
0
6
DASHED
0
LINE
5
172
100
AcDbEntity
8
0
100
AcDbLine
10
139.6583394853433
20
8.9999999999999964
30
0
11
139.98833948534329
21
8.9999999999999964
31
0
0
LINE
5
173
100
AcDbEntity
8
0
100
AcDbLine
10
139.98833948534329
20
8.9999999999999964
30
0
11
139.98833948534329
21
-9.0000001341104507
31
0
6
DASHED
0
LINE
5
174
100
AcDbEntity
8
0
100
AcDbLine
10
139.98833948534329
20
-9.0000001341104507
30
0
11
139.6583394853433
21
-9.0000001341104507
31
0
0
LINE
5
175
100
AcDbEntity
8
0
100
AcDbLine
10
139.6583394853433
20
-9.0000001341104507
30
0
11
139.6583394853433
21
8.9999999999999964
31
0
6
DASHED
0
LINE
5
176
100
AcDbEntity
8
0
100
AcDbLine
10
151.58216974468107
20
7.0000000000000018
30
0
11
152.0821697446811
21
7.0000000000000018
31
0
0
LINE
5
177
100
AcDbEntity
8
0
100
AcDbLine
10
152.0821697446811
20
7.0000000000000018
30
0
11
152.0821697446811
21
1.0000000149011612
31
0
6
DASHED
0
LINE
5
178
100
AcDbEntity
8
0
100
AcDbLine
10
152.0821697446811
20
1.0000000149011612
30
0
11
151.58216974468107
21
1
31
0
0
LINE
5
179
100
AcDbEntity
8
0
100
AcDbLine
10
151.58216974468107
20
-0.99999999999999978
30
0
11
152.0821697446811
21
-0.99999999999999978
31
0
0
LINE
5
180
100
AcDbEntity
8
0
100
AcDbLine
10
152.0821697446811
20
-0.99999999999999978
30
0
11
152.0821697446811
21
-7.0000001043081284
31
0
6
DASHED
0
LINE
5
181
100
AcDbEntity
8
0
100
AcDbLine
10
152.0821697446811
20
-7.0000001043081284
30
0
11
151.58216974468107
21
-7.0000000000000018
31
0
0
ENDSEC
0
SECTION
2
OBJECTS
0
DICTIONARY
5
C
100
AcDbDictionary
3
ACAD_GROUP
350
D
3
ACAD_MLINESTYLE
350
17
0
DICTIONARY
5
D
100
AcDbDictionary
0
DICTIONARY
5
1A
330
C
100
AcDbDictionary
0
DICTIONARY
5
17
100
AcDbDictionary
0
ENDSEC
0
EOF
